<svg xmlns="http://www.w3.org/2000/svg" width="13.149" height="11.553" viewBox="0 0 13.149 11.553"><defs><style>.a{fill:#64c1ff;}</style></defs><path class="a" d="M13.149,1.4a4.167,4.167,0,0,1-1.53.456A2.962,2.962,0,0,0,12.726.293a4.1,4.1,0,0,1-1.692.618h0A2.782,2.782,0,0,0,9.048,0,2.808,2.808,0,0,0,6.314,2.9v.033a2.477,2.477,0,0,0,.1.683h0A7.671,7.671,0,0,1,.651.619,3,3,0,0,0,1.5,4.459a1.787,1.787,0,0,1-1.2-.325A2.769,2.769,0,0,0,2.409,6.965a2.151,2.151,0,0,1-1.107.1A2.652,2.652,0,0,0,3.776,9.048,4.342,4.342,0,0,1,0,10.252a7.915,7.915,0,0,0,4.264,1.3,7.877,7.877,0,0,0,7.649-8.494h0v-.1A13.691,13.691,0,0,0,13.149,1.4Z"/></svg>