<svg xmlns="http://www.w3.org/2000/svg" width="16.82" height="14.779" viewBox="0 0 16.82 14.779"><defs><style>.a{fill:#64c1ff;}</style></defs><path class="a" d="M16.82,1.79a5.33,5.33,0,0,1-1.957.583,3.789,3.789,0,0,0,1.416-2,5.251,5.251,0,0,1-2.165.791h0A3.559,3.559,0,0,0,11.574,0a3.591,3.591,0,0,0-3.5,3.705v.042a3.169,3.169,0,0,0,.125.874h0A9.812,9.812,0,0,1,.833.791,3.834,3.834,0,0,0,1.915,5.7a2.285,2.285,0,0,1-1.54-.416A3.542,3.542,0,0,0,3.081,8.909a2.752,2.752,0,0,1-1.416.125A3.392,3.392,0,0,0,4.83,11.573,5.555,5.555,0,0,1,0,13.114a10.125,10.125,0,0,0,5.454,1.665c5.621,0,10.034-4.871,9.784-10.866h0V3.788A17.513,17.513,0,0,0,16.82,1.79Z"/></svg>